<svg width="750" height="448" viewBox="0 0 750 448" fill="none" xmlns="http://www.w3.org/2000/svg">
<path d="M20.2567 148.82H-36.741V420.937H20.2567V148.82Z" fill="#333333"/>
<path d="M4.53925 135.024H-21.3688V150.372H4.53925V135.024Z" fill="#333333"/>
<path d="M278.128 318.16H221.13V451.46H278.128V318.16Z" fill="#333333"/>
<path d="M247.038 311.435H221.13V319.023H247.038V311.435Z" fill="#333333"/>
<path d="M236.157 307.124H221.13V311.435H236.157V307.124Z" fill="#333333"/>
<path opacity="0.06" d="M254.293 327.473H244.966V334.37H254.293V327.473Z" fill="white"/>
<path opacity="0.12" d="M254.293 344.544H244.966V351.442H254.293V344.544Z" fill="white"/>
<path opacity="0.19" d="M254.293 378.689H244.966V385.586H254.293V378.689Z" fill="white"/>
<path opacity="0.14" d="M254.293 412.833H244.966V419.73H254.293V412.833Z" fill="white"/>
<path opacity="0.1" d="M254.293 429.904H244.966V436.802H254.293V429.904Z" fill="white"/>
<path d="M135.116 332.645H57.0461V404.037H135.116V332.645Z" fill="#333333"/>
<path d="M122.853 326.265H69.482V356.96H122.853V326.265Z" fill="#333333"/>
<path d="M140.815 377.653H62.7458V449.045H140.815V377.653Z" fill="#333333"/>
<path d="M128.38 371.272H75.009V401.968H128.38V371.272Z" fill="#333333"/>
<path d="M244.793 368.168H166.724V450.425H244.793V368.168Z" fill="#333333"/>
<path d="M232.53 360.926H179.159V396.449H232.53V360.926Z" fill="#333333"/>
<path d="M506.119 393.174H428.049V472.671H506.119V393.174Z" fill="#333333"/>
<path d="M493.856 386.104H440.485V420.42H493.856V386.104Z" fill="#333333"/>
<path d="M336.853 229.007H249.629V450.253H336.853V229.007Z" fill="#333333"/>
<path opacity="0.46" d="M275.019 239.008H253.947V242.975H275.019V239.008Z" fill="#E6E6E6"/>
<path opacity="0.34" d="M303.863 239.008H282.792V242.975H303.863V239.008Z" fill="#E6E6E6"/>
<path opacity="0.52" d="M332.535 239.008H311.463V242.975H332.535V239.008Z" fill="#E6E6E6"/>
<path opacity="0.54" d="M275.019 248.148H253.947V252.114H275.019V248.148Z" fill="#E6E6E6"/>
<path opacity="0.3" d="M303.863 248.148H282.792V252.114H303.863V248.148Z" fill="#E6E6E6"/>
<path opacity="0.06" d="M332.535 248.148H311.463V252.114H332.535V248.148Z" fill="#E6E6E6"/>
<path opacity="0.15" d="M275.019 257.288H253.947V261.254H275.019V257.288Z" fill="#E6E6E6"/>
<path opacity="0.42" d="M303.863 257.288H282.792V261.254H303.863V257.288Z" fill="#E6E6E6"/>
<path opacity="0.48" d="M332.535 257.288H311.463V261.254H332.535V257.288Z" fill="#E6E6E6"/>
<path opacity="0.18" d="M275.019 266.427H253.947V270.393H275.019V266.427Z" fill="#E6E6E6"/>
<path opacity="0.28" d="M332.535 266.427H311.463V270.393H332.535V266.427Z" fill="#E6E6E6"/>
<path opacity="0.29" d="M275.019 275.567H253.947V279.533H275.019V275.567Z" fill="#E6E6E6"/>
<path opacity="0.28" d="M303.863 275.567H282.792V279.533H303.863V275.567Z" fill="#E6E6E6"/>
<path opacity="0.56" d="M332.535 275.567H311.463V279.533H332.535V275.567Z" fill="#E6E6E6"/>
<path opacity="0.41" d="M275.019 284.706H253.947V288.673H275.019V284.706Z" fill="#E6E6E6"/>
<path opacity="0.16" d="M303.863 284.706H282.792V288.673H303.863V284.706Z" fill="#E6E6E6"/>
<path opacity="0.4" d="M332.535 284.706H311.463V288.673H332.535V284.706Z" fill="#E6E6E6"/>
<path opacity="0.1" d="M275.019 293.846H253.947V297.812H275.019V293.846Z" fill="#E6E6E6"/>
<path opacity="0.17" d="M303.863 293.846H282.792V297.812H303.863V293.846Z" fill="#E6E6E6"/>
<path opacity="0.08" d="M332.535 293.846H311.463V297.812H332.535V293.846Z" fill="#E6E6E6"/>
<path opacity="0.49" d="M275.019 302.985H253.947V306.952H275.019V302.985Z" fill="#E6E6E6"/>
<path opacity="0.58" d="M303.863 302.985H282.792V306.952H303.863V302.985Z" fill="#E6E6E6"/>
<path opacity="0.58" d="M332.535 302.985H311.463V306.952H332.535V302.985Z" fill="#E6E6E6"/>
<path opacity="0.26" d="M275.019 312.125H253.947V316.091H275.019V312.125Z" fill="#E6E6E6"/>
<path opacity="0.37" d="M303.863 312.125H282.792V316.091H303.863V312.125Z" fill="#E6E6E6"/>
<path opacity="0.34" d="M332.535 312.125H311.463V316.091H332.535V312.125Z" fill="#E6E6E6"/>
<path opacity="0.55" d="M275.019 321.264H253.947V325.231H275.019V321.264Z" fill="#E6E6E6"/>
<path opacity="0.12" d="M303.863 321.264H282.792V325.231H303.863V321.264Z" fill="#E6E6E6"/>
<path opacity="0.6" d="M332.535 321.264H311.463V325.231H332.535V321.264Z" fill="#E6E6E6"/>
<path opacity="0.02" d="M275.019 330.404H253.947V334.37H275.019V330.404Z" fill="#E6E6E6"/>
<path opacity="0.28" d="M303.863 330.404H282.792V334.37H303.863V330.404Z" fill="#E6E6E6"/>
<path opacity="0.21" d="M332.535 330.404H311.463V334.37H332.535V330.404Z" fill="#E6E6E6"/>
<path opacity="0.57" d="M275.019 339.543H253.947V343.51H275.019V339.543Z" fill="#E6E6E6"/>
<path opacity="0.38" d="M303.863 339.543H282.792V343.51H303.863V339.543Z" fill="#E6E6E6"/>
<path opacity="0.25" d="M332.535 339.543H311.463V343.51H332.535V339.543Z" fill="#E6E6E6"/>
<path opacity="0.15" d="M275.019 348.683H253.947V352.649H275.019V348.683Z" fill="#E6E6E6"/>
<path opacity="0.47" d="M303.863 348.683H282.792V352.649H303.863V348.683Z" fill="#E6E6E6"/>
<path opacity="0.3" d="M332.535 348.683H311.463V352.649H332.535V348.683Z" fill="#E6E6E6"/>
<path opacity="0.4" d="M275.019 357.823H253.947V361.789H275.019V357.823Z" fill="#E6E6E6"/>
<path opacity="0.39" d="M303.863 357.823H282.792V361.789H303.863V357.823Z" fill="#E6E6E6"/>
<path opacity="0.24" d="M332.535 357.823H311.463V361.789H332.535V357.823Z" fill="#E6E6E6"/>
<path opacity="0.46" d="M275.019 366.962H253.947V370.928H275.019V366.962Z" fill="#E6E6E6"/>
<path opacity="0.22" d="M303.863 366.962H282.792V370.928H303.863V366.962Z" fill="#E6E6E6"/>
<path opacity="0.11" d="M332.535 366.962H311.463V370.928H332.535V366.962Z" fill="#E6E6E6"/>
<path opacity="0.11" d="M303.863 376.102H282.792V380.068H303.863V376.102Z" fill="#E6E6E6"/>
<path opacity="0.02" d="M332.535 376.102H311.463V380.068H332.535V376.102Z" fill="#E6E6E6"/>
<path opacity="0.27" d="M275.019 385.241H253.947V389.208H275.019V385.241Z" fill="#E6E6E6"/>
<path opacity="0.21" d="M303.863 385.241H282.792V389.208H303.863V385.241Z" fill="#E6E6E6"/>
<path opacity="0.49" d="M332.535 385.241H311.463V389.208H332.535V385.241Z" fill="#E6E6E6"/>
<path opacity="0.6" d="M275.019 394.381H253.947V398.347H275.019V394.381Z" fill="#E6E6E6"/>
<path opacity="0.31" d="M303.863 394.381H282.792V398.347H303.863V394.381Z" fill="#E6E6E6"/>
<path opacity="0.22" d="M332.535 394.381H311.463V398.347H332.535V394.381Z" fill="#E6E6E6"/>
<path opacity="0.54" d="M275.019 403.52H253.947V407.487H275.019V403.52Z" fill="#E6E6E6"/>
<path opacity="0.6" d="M303.863 403.52H282.792V407.487H303.863V403.52Z" fill="#E6E6E6"/>
<path opacity="0.08" d="M332.535 403.52H311.463V407.487H332.535V403.52Z" fill="#E6E6E6"/>
<path opacity="0.55" d="M303.863 412.66H282.792V416.626H303.863V412.66Z" fill="#E6E6E6"/>
<path d="M332.535 412.66H311.463V416.626H332.535V412.66Z" fill="#E6E6E6"/>
<path opacity="0.6" d="M276.401 239.008H275.019V416.626H276.401V239.008Z" fill="#E6E6E6"/>
<path opacity="0.6" d="M311.463 239.008H310.081V416.626H311.463V239.008Z" fill="#E6E6E6"/>
<path d="M380.378 229.007H336.853V450.253H380.378V229.007Z" fill="#4D4D4D"/>
<path opacity="0.69" d="M373.988 239.008H341.171V242.975H373.988V239.008Z" fill="#E6E6E6"/>
<path opacity="0.79" d="M373.988 248.148H341.171V252.114H373.988V248.148Z" fill="#E6E6E6"/>
<path opacity="0.19" d="M373.988 257.288H341.171V261.254H373.988V257.288Z" fill="#E6E6E6"/>
<path opacity="0.88" d="M373.988 266.427H341.171V270.393H373.988V266.427Z" fill="#E6E6E6"/>
<path opacity="0.5" d="M373.988 275.567H341.171V279.533H373.988V275.567Z" fill="#E6E6E6"/>
<path opacity="0.25" d="M373.988 284.706H341.171V288.673H373.988V284.706Z" fill="#E6E6E6"/>
<path opacity="0.91" d="M373.988 293.846H341.171V297.812H373.988V293.846Z" fill="#E6E6E6"/>
<path opacity="0.02" d="M373.988 302.985H341.171V306.952H373.988V302.985Z" fill="#E6E6E6"/>
<path opacity="0.53" d="M373.988 312.125H341.171V316.091H373.988V312.125Z" fill="#E6E6E6"/>
<path opacity="0.65" d="M373.988 321.264H341.171V325.231H373.988V321.264Z" fill="#E6E6E6"/>
<path d="M373.988 330.404H341.171V334.37H373.988V330.404Z" fill="#E6E6E6"/>
<path opacity="0.8" d="M373.988 339.543H341.171V343.51H373.988V339.543Z" fill="#E6E6E6"/>
<path opacity="0.82" d="M373.988 348.683H341.171V352.649H373.988V348.683Z" fill="#E6E6E6"/>
<path opacity="0.75" d="M373.988 357.823H341.171V361.789H373.988V357.823Z" fill="#E6E6E6"/>
<path opacity="0.31" d="M373.988 366.962H341.171V370.928H373.988V366.962Z" fill="#E6E6E6"/>
<path opacity="0.22" d="M373.988 376.102H341.171V380.068H373.988V376.102Z" fill="#E6E6E6"/>
<path opacity="0.43" d="M373.988 385.241H341.171V389.208H373.988V385.241Z" fill="#E6E6E6"/>
<path opacity="0.68" d="M373.988 394.381H341.171V398.347H373.988V394.381Z" fill="#E6E6E6"/>
<path opacity="0.38" d="M373.988 403.52H341.171V407.487H373.988V403.52Z" fill="#E6E6E6"/>
<path opacity="0.84" d="M373.988 412.66H341.171V416.626H373.988V412.66Z" fill="#E6E6E6"/>
<path d="M265.001 217.28V229.006H321.481V217.28H265.001ZM277.61 225.213H271.737V221.246H277.61V225.213ZM286.764 225.213H281.064V221.246H286.764V225.213ZM296.091 225.213H290.391V221.246H296.091V225.213ZM305.418 225.213H299.545V221.246H305.418V225.213ZM314.745 225.213H308.872V221.246H314.745V225.213Z" fill="#333333"/>
<path d="M331.844 221.247H330.29V225.213H331.844V221.247Z" fill="#333333"/>
<path d="M321.481 217.28V229.006H348.08V217.28H321.481ZM331.844 225.213H326.144V221.246H331.844V225.213ZM344.107 225.213H338.408V221.246H344.107V225.213Z" fill="#4D4D4D"/>
<path d="M343.935 221.247H342.38V225.213H343.935V221.247Z" fill="#333333"/>
<path d="M348.425 465.255H230.976L348.425 378.688V465.255Z" fill="#333333"/>
<path d="M173.287 182.102H163.787V218.142H173.287V182.102Z" fill="#4D4D4D"/>
<path d="M163.96 182.102H154.288V218.142H163.96V182.102Z" fill="#333333"/>
<path d="M183.132 182.102H173.46V218.142H183.132V182.102Z" fill="#666666"/>
<path d="M211.113 242.802H184.168V448.356H211.113V242.802Z" fill="#666666"/>
<path d="M152.561 242.802H129.071V448.356H152.561V242.802Z" fill="#333333"/>
<path d="M184.168 242.802H152.388V448.356H184.168V242.802Z" fill="#4D4D4D"/>
<path opacity="0.6" d="M135.807 248.837H132.352V445.597H135.807V248.837Z" fill="#E6E6E6"/>
<path opacity="0.6" d="M142.543 248.837H139.088V445.597H142.543V248.837Z" fill="#E6E6E6"/>
<path opacity="0.6" d="M149.279 248.837H145.825V445.597H149.279V248.837Z" fill="#E6E6E6"/>
<path d="M189.523 248.837H186.068V445.597H189.523V248.837Z" fill="#E6E6E6"/>
<path d="M196.259 248.837H192.804V445.597H196.259V248.837Z" fill="#E6E6E6"/>
<path d="M209.385 248.837H205.931V445.597H209.385V248.837Z" fill="#E6E6E6"/>
<path d="M202.995 248.837H199.54V445.597H202.995V248.837Z" fill="#E6E6E6"/>
<path opacity="0.8" d="M156.36 445.597H180.196V248.837H156.36V445.597ZM160.16 252.286H176.396V442.148H160.16V252.286Z" fill="#E6E6E6"/>
<path opacity="0.8" d="M163.269 438.871H173.46V255.39H163.269V438.871ZM166.724 259.701H167.933H168.624H170.005V434.56H168.624H167.933H166.724V259.701Z" fill="#E6E6E6"/>
<path opacity="0.8" d="M168.624 259.701H167.933V434.56H168.624V259.701Z" fill="#E6E6E6"/>
<path d="M180.541 206.761H156.706V242.802H180.541V206.761Z" fill="#4D4D4D"/>
<path d="M180.541 206.761H156.706V242.802H180.541V206.761Z" fill="#4D4D4D"/>
<path d="M204.377 206.761H180.541V242.802H204.377V206.761Z" fill="#666666"/>
<path d="M156.706 206.761H132.87V242.802H156.706V206.761Z" fill="#333333"/>
<path d="M182.959 182.102H154.288L163.787 188.654H173.46L182.959 182.102Z" fill="#808080"/>
<path d="M695.42 168.823H681.603V209.348H695.42V168.823Z" fill="#4D4D4D"/>
<path d="M681.43 168.823H667.612V209.348H681.43V168.823Z" fill="#333333"/>
<path d="M709.238 168.823H695.42V209.348H709.238V168.823Z" fill="#666666"/>
<path d="M750 237.284H710.965V468.877H750V237.284Z" fill="#666666"/>
<path d="M665.021 237.284H631.168V468.877H665.021V237.284Z" fill="#333333"/>
<path d="M710.965 237.284H665.022V468.877H710.965V237.284Z" fill="#4D4D4D"/>
<path opacity="0.4" d="M640.841 244.181H635.832V465.772H640.841V244.181Z" fill="#E6E6E6"/>
<path opacity="0.4" d="M650.686 244.181H645.677V465.772H650.686V244.181Z" fill="#E6E6E6"/>
<path opacity="0.4" d="M660.531 244.181H655.522V465.772H660.531V244.181Z" fill="#E6E6E6"/>
<path d="M718.738 244.181H713.729V465.772H718.738V244.181Z" fill="#E6E6E6"/>
<path d="M728.583 244.181H723.574V465.772H728.583V244.181Z" fill="#E6E6E6"/>
<path d="M747.409 244.181H742.4V465.772H747.409V244.181Z" fill="#E6E6E6"/>
<path d="M738.255 244.181H733.246V465.772H738.255V244.181Z" fill="#E6E6E6"/>
<path d="M670.894 465.772H705.438V244.181H670.894V465.772ZM676.248 247.975H699.738V461.979H676.248V247.975Z" fill="#E6E6E6"/>
<path d="M680.566 458.357H695.42V251.597H680.566V458.357ZM685.748 256.425H687.648H688.512H690.411V453.529H688.512H687.648H685.748V256.425Z" fill="#E6E6E6"/>
<path d="M688.512 256.425H687.648V453.529H688.512V256.425Z" fill="#E6E6E6"/>
<path d="M705.784 196.759H671.24V237.284H705.784V196.759Z" fill="#4D4D4D"/>
<path d="M705.784 196.759H671.24V237.284H705.784V196.759Z" fill="#4D4D4D"/>
<path d="M740.328 196.759H705.784V237.284H740.328V196.759Z" fill="#666666"/>
<path d="M671.412 196.759H636.868V237.284H671.412V196.759Z" fill="#333333"/>
<path d="M709.411 168.823H667.612L681.603 176.238H695.42L709.411 168.823Z" fill="#808080"/>
<path d="M595.761 269.358H501.283V300.743H595.761V269.358Z" fill="#E6E6E6"/>
<path d="M538.418 269.358H501.283V300.743H538.418V269.358Z" fill="#B3B3B3"/>
<path d="M538.418 300.915H465.011V453.356H538.418V300.915Z" fill="#333333"/>
<path d="M653.104 300.915H538.418V453.356H653.104V300.915Z" fill="#4D4D4D"/>
<path d="M529.436 285.395H472.957V300.915H529.436V285.395Z" fill="#333333"/>
<path d="M636.005 285.395H555.344V300.915H636.005V285.395Z" fill="#4D4D4D"/>
<path d="M570.716 257.459H538.418V269.358H570.716V257.459Z" fill="#E6E6E6"/>
<path d="M554.481 245.388H538.418V257.287H554.481V245.388Z" fill="#4D4D4D"/>
<path d="M538.245 245.388H522.182V257.287H538.245V245.388Z" fill="#333333"/>
<path d="M538.418 257.459H513.719V269.358H538.418V257.459Z" fill="#B3B3B3"/>
<path d="M537.381 245.388L538.418 217.797L539.281 245.388H537.381Z" fill="#333333"/>
<path opacity="0.12" d="M488.156 307.123H482.111V313.159H488.156V307.123Z" fill="white"/>
<path opacity="0.25" d="M496.447 307.123H490.401V313.159H496.447V307.123Z" fill="white"/>
<path opacity="0.36" d="M504.737 307.123H498.692V313.159H504.737V307.123Z" fill="white"/>
<path opacity="0.12" d="M513.028 307.123H506.982V313.159H513.028V307.123Z" fill="white"/>
<path opacity="0.14" d="M521.318 307.123H515.273V313.159H521.318V307.123Z" fill="white"/>
<path opacity="0.28" d="M488.156 315.055H482.111V321.091H488.156V315.055Z" fill="white"/>
<path opacity="0.4" d="M496.447 315.055H490.401V321.091H496.447V315.055Z" fill="white"/>
<path opacity="0.16" d="M504.737 315.055H498.692V321.091H504.737V315.055Z" fill="white"/>
<path opacity="0.17" d="M521.318 315.055H515.273V321.091H521.318V315.055Z" fill="white"/>
<path opacity="0.27" d="M488.156 322.988H482.111V329.023H488.156V322.988Z" fill="white"/>
<path opacity="0.45" d="M496.447 322.988H490.401V329.023H496.447V322.988Z" fill="white"/>
<path opacity="0.45" d="M504.737 322.988H498.692V329.023H504.737V322.988Z" fill="white"/>
<path opacity="0.48" d="M513.028 322.988H506.982V329.023H513.028V322.988Z" fill="white"/>
<path opacity="0.25" d="M521.318 322.988H515.273V329.023H521.318V322.988Z" fill="white"/>
<path opacity="0.28" d="M488.156 330.92H482.111V336.956H488.156V330.92Z" fill="white"/>
<path opacity="0.13" d="M496.447 330.92H490.401V336.956H496.447V330.92Z" fill="white"/>
<path opacity="0.07" d="M504.737 330.92H498.692V336.956H504.737V330.92Z" fill="white"/>
<path opacity="0.39" d="M513.028 330.92H506.982V336.956H513.028V330.92Z" fill="white"/>
<path opacity="0.47" d="M521.318 330.92H515.273V336.956H521.318V330.92Z" fill="white"/>
<path opacity="0.28" d="M488.156 338.852H482.111V344.888H488.156V338.852Z" fill="white"/>
<path opacity="0.2" d="M496.447 338.852H490.401V344.888H496.447V338.852Z" fill="white"/>
<path opacity="0.04" d="M504.737 338.852H498.692V344.888H504.737V338.852Z" fill="white"/>
<path opacity="0.43" d="M513.028 338.852H506.982V344.888H513.028V338.852Z" fill="white"/>
<path opacity="0.48" d="M521.318 338.852H515.273V344.888H521.318V338.852Z" fill="white"/>
<path opacity="0.28" d="M488.156 346.785H482.111V352.821H488.156V346.785Z" fill="white"/>
<path opacity="0.19" d="M496.447 346.785H490.401V352.821H496.447V346.785Z" fill="white"/>
<path opacity="0.01" d="M504.737 346.785H498.692V352.821H504.737V346.785Z" fill="white"/>
<path opacity="0.27" d="M513.028 346.785H506.982V352.821H513.028V346.785Z" fill="white"/>
<path opacity="0.24" d="M521.318 346.785H515.273V352.821H521.318V346.785Z" fill="white"/>
<path opacity="0.07" d="M488.156 354.89H482.111V360.925H488.156V354.89Z" fill="white"/>
<path opacity="0.25" d="M496.447 354.89H490.401V360.925H496.447V354.89Z" fill="white"/>
<path opacity="0.26" d="M504.737 354.89H498.692V360.925H504.737V354.89Z" fill="white"/>
<path opacity="0.39" d="M513.028 354.89H506.982V360.925H513.028V354.89Z" fill="white"/>
<path opacity="0.22" d="M521.318 354.89H515.273V360.925H521.318V354.89Z" fill="white"/>
<path opacity="0.15" d="M488.156 362.822H482.111V368.858H488.156V362.822Z" fill="white"/>
<path opacity="0.23" d="M496.447 362.822H490.401V368.858H496.447V362.822Z" fill="white"/>
<path opacity="0.05" d="M504.737 362.822H498.692V368.858H504.737V362.822Z" fill="white"/>
<path opacity="0.2" d="M513.028 362.822H506.982V368.858H513.028V362.822Z" fill="white"/>
<path opacity="0.31" d="M521.318 362.822H515.273V368.858H521.318V362.822Z" fill="white"/>
<path opacity="0.15" d="M488.156 370.755H482.111V376.79H488.156V370.755Z" fill="white"/>
<path opacity="0.33" d="M496.447 370.755H490.401V376.79H496.447V370.755Z" fill="white"/>
<path opacity="0.46" d="M504.737 370.755H498.692V376.79H504.737V370.755Z" fill="white"/>
<path opacity="0.25" d="M513.028 370.755H506.982V376.79H513.028V370.755Z" fill="white"/>
<path opacity="0.43" d="M521.318 370.755H515.273V376.79H521.318V370.755Z" fill="white"/>
<path opacity="0.4" d="M488.156 378.687H482.111V384.723H488.156V378.687Z" fill="white"/>
<path opacity="0.39" d="M496.447 378.687H490.401V384.723H496.447V378.687Z" fill="white"/>
<path opacity="0.01" d="M504.737 378.687H498.692V384.723H504.737V378.687Z" fill="white"/>
<path opacity="0.12" d="M513.028 378.687H506.982V384.723H513.028V378.687Z" fill="white"/>
<path opacity="0.07" d="M521.318 378.687H515.273V384.723H521.318V378.687Z" fill="white"/>
<path opacity="0.07" d="M488.156 386.62H482.111V392.656H488.156V386.62Z" fill="white"/>
<path opacity="0.02" d="M496.447 386.62H490.401V392.656H496.447V386.62Z" fill="white"/>
<path opacity="0.12" d="M504.737 386.62H498.692V392.656H504.737V386.62Z" fill="white"/>
<path opacity="0.23" d="M513.028 386.62H506.982V392.656H513.028V386.62Z" fill="white"/>
<path opacity="0.26" d="M521.318 386.62H515.273V392.656H521.318V386.62Z" fill="white"/>
<path opacity="0.27" d="M488.156 394.552H482.111V400.588H488.156V394.552Z" fill="white"/>
<path opacity="0.38" d="M496.447 394.552H490.401V400.588H496.447V394.552Z" fill="white"/>
<path opacity="0.05" d="M504.737 394.552H498.692V400.588H504.737V394.552Z" fill="white"/>
<path opacity="0.45" d="M513.028 394.552H506.982V400.588H513.028V394.552Z" fill="white"/>
<path opacity="0.15" d="M521.318 394.552H515.273V400.588H521.318V394.552Z" fill="white"/>
<path opacity="0.06" d="M488.156 402.485H482.111V408.52H488.156V402.485Z" fill="white"/>
<path opacity="0.47" d="M496.447 402.485H490.401V408.52H496.447V402.485Z" fill="white"/>
<path opacity="0.15" d="M504.737 402.485H498.692V408.52H504.737V402.485Z" fill="white"/>
<path opacity="0.44" d="M513.028 402.485H506.982V408.52H513.028V402.485Z" fill="white"/>
<path opacity="0.14" d="M521.318 402.485H515.273V408.52H521.318V402.485Z" fill="white"/>
<path opacity="0.15" d="M488.156 410.417H482.111V416.453H488.156V410.417Z" fill="white"/>
<path opacity="0.43" d="M496.447 410.417H490.401V416.453H496.447V410.417Z" fill="white"/>
<path opacity="0.07" d="M504.737 410.417H498.692V416.453H504.737V410.417Z" fill="white"/>
<path opacity="0.47" d="M513.028 410.417H506.982V416.453H513.028V410.417Z" fill="white"/>
<path opacity="0.11" d="M521.318 410.417H515.273V416.453H521.318V410.417Z" fill="white"/>
<path opacity="0.07" d="M488.156 418.35H482.111V424.385H488.156V418.35Z" fill="white"/>
<path opacity="0.34" d="M496.447 418.35H490.401V424.385H496.447V418.35Z" fill="white"/>
<path opacity="0.5" d="M504.737 418.35H498.692V424.385H504.737V418.35Z" fill="white"/>
<path opacity="0.36" d="M513.028 418.35H506.982V424.385H513.028V418.35Z" fill="white"/>
<path opacity="0.34" d="M521.318 418.35H515.273V424.385H521.318V418.35Z" fill="white"/>
<path opacity="0.47" d="M488.156 426.282H482.111V432.318H488.156V426.282Z" fill="white"/>
<path opacity="0.41" d="M496.447 426.282H490.401V432.318H496.447V426.282Z" fill="white"/>
<path opacity="0.3" d="M504.737 426.282H498.692V432.318H504.737V426.282Z" fill="white"/>
<path opacity="0.33" d="M513.028 426.282H506.982V432.318H513.028V426.282Z" fill="white"/>
<path opacity="0.12" d="M521.318 426.282H515.273V432.318H521.318V426.282Z" fill="white"/>
<path opacity="0.24" d="M488.156 434.214H482.111V440.25H488.156V434.214Z" fill="white"/>
<path opacity="0.29" d="M496.447 434.214H490.401V440.25H496.447V434.214Z" fill="white"/>
<path opacity="0.27" d="M513.028 434.214H506.982V440.25H513.028V434.214Z" fill="white"/>
<path opacity="0.04" d="M521.318 434.214H515.273V440.25H521.318V434.214Z" fill="white"/>
<path opacity="0.11" d="M488.156 442.147H482.111V448.182H488.156V442.147Z" fill="white"/>
<path opacity="0.05" d="M496.447 442.147H490.401V448.182H496.447V442.147Z" fill="white"/>
<path opacity="0.04" d="M504.737 442.147H498.692V448.182H504.737V442.147Z" fill="white"/>
<path opacity="0.02" d="M513.028 442.147H506.982V448.182H513.028V442.147Z" fill="white"/>
<path opacity="0.3" d="M558.453 307.123H552.408V313.159H558.453V307.123Z" fill="white"/>
<path opacity="0.72" d="M566.398 307.123H560.353V313.159H566.398V307.123Z" fill="white"/>
<path opacity="0.7" d="M574.516 307.123H568.471V313.159H574.516V307.123Z" fill="white"/>
<path opacity="0.52" d="M582.634 307.123H576.589V313.159H582.634V307.123Z" fill="white"/>
<path opacity="0.2" d="M590.752 307.123H584.706V313.159H590.752V307.123Z" fill="white"/>
<path opacity="0.32" d="M598.697 307.123H592.652V313.159H598.697V307.123Z" fill="white"/>
<path opacity="0.13" d="M606.815 307.123H600.77V313.159H606.815V307.123Z" fill="white"/>
<path opacity="0.38" d="M614.933 307.123H608.887V313.159H614.933V307.123Z" fill="white"/>
<path opacity="0.61" d="M622.878 307.123H616.833V313.159H622.878V307.123Z" fill="white"/>
<path d="M630.996 307.123H624.95V313.159H630.996V307.123Z" fill="white"/>
<path opacity="0.91" d="M639.113 307.123H633.068V313.159H639.113V307.123Z" fill="white"/>
<path opacity="0.66" d="M558.453 315.055H552.408V321.091H558.453V315.055Z" fill="white"/>
<path opacity="0.31" d="M566.398 315.055H560.353V321.091H566.398V315.055Z" fill="white"/>
<path opacity="0.95" d="M574.516 315.055H568.471V321.091H574.516V315.055Z" fill="white"/>
<path opacity="0.7" d="M582.634 315.055H576.589V321.091H582.634V315.055Z" fill="white"/>
<path opacity="0.12" d="M590.752 315.055H584.706V321.091H590.752V315.055Z" fill="white"/>
<path opacity="0.24" d="M598.697 315.055H592.652V321.091H598.697V315.055Z" fill="white"/>
<path opacity="0.66" d="M606.815 315.055H600.77V321.091H606.815V315.055Z" fill="white"/>
<path opacity="0.71" d="M614.933 315.055H608.887V321.091H614.933V315.055Z" fill="white"/>
<path opacity="0.42" d="M622.878 315.055H616.833V321.091H622.878V315.055Z" fill="white"/>
<path opacity="0.09" d="M630.996 315.055H624.95V321.091H630.996V315.055Z" fill="white"/>
<path opacity="0.32" d="M639.113 315.055H633.068V321.091H639.113V315.055Z" fill="white"/>
<path opacity="0.65" d="M558.453 322.988H552.408V329.023H558.453V322.988Z" fill="white"/>
<path d="M566.398 322.988H560.353V329.023H566.398V322.988Z" fill="white"/>
<path d="M574.516 322.988H568.471V329.023H574.516V322.988Z" fill="white"/>
<path opacity="0.71" d="M582.634 322.988H576.589V329.023H582.634V322.988Z" fill="white"/>
<path opacity="0.2" d="M590.752 322.988H584.706V329.023H590.752V322.988Z" fill="white"/>
<path opacity="0.19" d="M598.697 322.988H592.652V329.023H598.697V322.988Z" fill="white"/>
<path opacity="0.62" d="M606.815 322.988H600.77V329.023H606.815V322.988Z" fill="white"/>
<path opacity="0.93" d="M614.933 322.988H608.887V329.023H614.933V322.988Z" fill="white"/>
<path opacity="0.56" d="M622.878 322.988H616.833V329.023H622.878V322.988Z" fill="white"/>
<path opacity="0.57" d="M630.996 322.988H624.95V329.023H630.996V322.988Z" fill="white"/>
<path opacity="0.52" d="M639.113 322.988H633.068V329.023H639.113V322.988Z" fill="white"/>
<path opacity="0.74" d="M558.453 330.92H552.408V336.956H558.453V330.92Z" fill="white"/>
<path opacity="0.56" d="M566.398 330.92H560.353V336.956H566.398V330.92Z" fill="white"/>
<path opacity="0.78" d="M574.516 330.92H568.471V336.956H574.516V330.92Z" fill="white"/>
<path opacity="0.41" d="M582.634 330.92H576.589V336.956H582.634V330.92Z" fill="white"/>
<path opacity="0.14" d="M590.752 330.92H584.706V336.956H590.752V330.92Z" fill="white"/>
<path opacity="0.28" d="M598.697 330.92H592.652V336.956H598.697V330.92Z" fill="white"/>
<path opacity="0.36" d="M606.815 330.92H600.77V336.956H606.815V330.92Z" fill="white"/>
<path opacity="0.14" d="M614.933 330.92H608.887V336.956H614.933V330.92Z" fill="white"/>
<path opacity="0.5" d="M622.878 330.92H616.833V336.956H622.878V330.92Z" fill="white"/>
<path opacity="0.98" d="M630.996 330.92H624.95V336.956H630.996V330.92Z" fill="white"/>
<path opacity="0.59" d="M639.113 330.92H633.068V336.956H639.113V330.92Z" fill="white"/>
<path opacity="0.07" d="M558.453 338.852H552.408V344.888H558.453V338.852Z" fill="white"/>
<path opacity="0.1" d="M566.398 338.852H560.353V344.888H566.398V338.852Z" fill="white"/>
<path opacity="0.88" d="M574.516 338.852H568.471V344.888H574.516V338.852Z" fill="white"/>
<path opacity="0.68" d="M582.634 338.852H576.589V344.888H582.634V338.852Z" fill="white"/>
<path opacity="0.81" d="M590.752 338.852H584.706V344.888H590.752V338.852Z" fill="white"/>
<path opacity="0.62" d="M598.697 338.852H592.652V344.888H598.697V338.852Z" fill="white"/>
<path opacity="0.97" d="M606.815 338.852H600.77V344.888H606.815V338.852Z" fill="white"/>
<path opacity="0.81" d="M614.933 338.852H608.887V344.888H614.933V338.852Z" fill="white"/>
<path opacity="0.79" d="M622.878 338.852H616.833V344.888H622.878V338.852Z" fill="white"/>
<path opacity="0.03" d="M630.996 338.852H624.95V344.888H630.996V338.852Z" fill="white"/>
<path opacity="0.95" d="M639.113 338.852H633.068V344.888H639.113V338.852Z" fill="white"/>
<path opacity="0.62" d="M558.453 346.785H552.408V352.821H558.453V346.785Z" fill="white"/>
<path opacity="0.22" d="M566.398 346.785H560.353V352.821H566.398V346.785Z" fill="white"/>
<path opacity="0.42" d="M574.516 346.785H568.471V352.821H574.516V346.785Z" fill="white"/>
<path opacity="0.56" d="M582.634 346.785H576.589V352.821H582.634V346.785Z" fill="white"/>
<path opacity="0.03" d="M590.752 346.785H584.706V352.821H590.752V346.785Z" fill="white"/>
<path opacity="0.64" d="M598.697 346.785H592.652V352.821H598.697V346.785Z" fill="white"/>
<path opacity="0.82" d="M606.815 346.785H600.77V352.821H606.815V346.785Z" fill="white"/>
<path opacity="0.52" d="M614.933 346.785H608.887V352.821H614.933V346.785Z" fill="white"/>
<path opacity="0.46" d="M622.878 346.785H616.833V352.821H622.878V346.785Z" fill="white"/>
<path opacity="0.27" d="M630.996 346.785H624.95V352.821H630.996V346.785Z" fill="white"/>
<path opacity="0.46" d="M639.113 346.785H633.068V352.821H639.113V346.785Z" fill="white"/>
<path opacity="0.66" d="M558.453 354.89H552.408V360.925H558.453V354.89Z" fill="white"/>
<path opacity="0.7" d="M566.398 354.89H560.353V360.925H566.398V354.89Z" fill="white"/>
<path opacity="0.94" d="M574.516 354.89H568.471V360.925H574.516V354.89Z" fill="white"/>
<path opacity="0.5" d="M582.634 354.89H576.589V360.925H582.634V354.89Z" fill="white"/>
<path opacity="0.12" d="M590.752 354.89H584.706V360.925H590.752V354.89Z" fill="white"/>
<path opacity="0.36" d="M598.697 354.89H592.652V360.925H598.697V354.89Z" fill="white"/>
<path opacity="0.51" d="M606.815 354.89H600.77V360.925H606.815V354.89Z" fill="white"/>
<path opacity="0.37" d="M614.933 354.89H608.887V360.925H614.933V354.89Z" fill="white"/>
<path opacity="0.66" d="M622.878 354.89H616.833V360.925H622.878V354.89Z" fill="white"/>
<path opacity="0.42" d="M630.996 354.89H624.95V360.925H630.996V354.89Z" fill="white"/>
<path opacity="0.5" d="M639.113 354.89H633.068V360.925H639.113V354.89Z" fill="white"/>
<path opacity="0.52" d="M558.453 362.822H552.408V368.858H558.453V362.822Z" fill="white"/>
<path opacity="0.61" d="M566.398 362.822H560.353V368.858H566.398V362.822Z" fill="white"/>
<path opacity="0.84" d="M574.516 362.822H568.471V368.858H574.516V362.822Z" fill="white"/>
<path opacity="0.89" d="M582.634 362.822H576.589V368.858H582.634V362.822Z" fill="white"/>
<path opacity="0.33" d="M590.752 362.822H584.706V368.858H590.752V362.822Z" fill="white"/>
<path opacity="0.25" d="M598.697 362.822H592.652V368.858H598.697V362.822Z" fill="white"/>
<path opacity="0.95" d="M606.815 362.822H600.77V368.858H606.815V362.822Z" fill="white"/>
<path opacity="0.09" d="M614.933 362.822H608.887V368.858H614.933V362.822Z" fill="white"/>
<path opacity="0.44" d="M622.878 362.822H616.833V368.858H622.878V362.822Z" fill="white"/>
<path opacity="0.51" d="M630.996 362.822H624.95V368.858H630.996V362.822Z" fill="white"/>
<path opacity="0.97" d="M639.113 362.822H633.068V368.858H639.113V362.822Z" fill="white"/>
<path opacity="0.26" d="M558.453 370.755H552.408V376.79H558.453V370.755Z" fill="white"/>
<path opacity="0.92" d="M566.398 370.755H560.353V376.79H566.398V370.755Z" fill="white"/>
<path opacity="0.33" d="M574.516 370.755H568.471V376.79H574.516V370.755Z" fill="white"/>
<path opacity="0.23" d="M582.634 370.755H576.589V376.79H582.634V370.755Z" fill="white"/>
<path opacity="0.42" d="M590.752 370.755H584.706V376.79H590.752V370.755Z" fill="white"/>
<path opacity="0.57" d="M598.697 370.755H592.652V376.79H598.697V370.755Z" fill="white"/>
<path opacity="0.73" d="M606.815 370.755H600.77V376.79H606.815V370.755Z" fill="white"/>
<path opacity="0.87" d="M614.933 370.755H608.887V376.79H614.933V370.755Z" fill="white"/>
<path opacity="0.22" d="M622.878 370.755H616.833V376.79H622.878V370.755Z" fill="white"/>
<path opacity="0.89" d="M630.996 370.755H624.95V376.79H630.996V370.755Z" fill="white"/>
<path opacity="0.73" d="M639.113 370.755H633.068V376.79H639.113V370.755Z" fill="white"/>
<path opacity="0.35" d="M558.453 378.687H552.408V384.723H558.453V378.687Z" fill="white"/>
<path opacity="0.81" d="M566.398 378.687H560.353V384.723H566.398V378.687Z" fill="white"/>
<path opacity="0.56" d="M574.516 378.687H568.471V384.723H574.516V378.687Z" fill="white"/>
<path opacity="0.81" d="M582.634 378.687H576.589V384.723H582.634V378.687Z" fill="white"/>
<path opacity="0.87" d="M590.752 378.687H584.706V384.723H590.752V378.687Z" fill="white"/>
<path opacity="0.39" d="M598.697 378.687H592.652V384.723H598.697V378.687Z" fill="white"/>
<path opacity="0.31" d="M606.815 378.687H600.77V384.723H606.815V378.687Z" fill="white"/>
<path opacity="0.98" d="M614.933 378.687H608.887V384.723H614.933V378.687Z" fill="white"/>
<path opacity="0.17" d="M622.878 378.687H616.833V384.723H622.878V378.687Z" fill="white"/>
<path opacity="0.06" d="M630.996 378.687H624.95V384.723H630.996V378.687Z" fill="white"/>
<path opacity="0.57" d="M639.113 378.687H633.068V384.723H639.113V378.687Z" fill="white"/>
<path opacity="0.67" d="M558.453 386.62H552.408V392.656H558.453V386.62Z" fill="white"/>
<path opacity="0.83" d="M566.398 386.62H560.353V392.656H566.398V386.62Z" fill="white"/>
<path opacity="0.99" d="M574.516 386.62H568.471V392.656H574.516V386.62Z" fill="white"/>
<path opacity="0.62" d="M582.634 386.62H576.589V392.656H582.634V386.62Z" fill="white"/>
<path opacity="0.87" d="M590.752 386.62H584.706V392.656H590.752V386.62Z" fill="white"/>
<path opacity="0.14" d="M598.697 386.62H592.652V392.656H598.697V386.62Z" fill="white"/>
<path opacity="0.12" d="M606.815 386.62H600.77V392.656H606.815V386.62Z" fill="white"/>
<path opacity="0.11" d="M614.933 386.62H608.887V392.656H614.933V386.62Z" fill="white"/>
<path opacity="0.39" d="M622.878 386.62H616.833V392.656H622.878V386.62Z" fill="white"/>
<path opacity="0.58" d="M630.996 386.62H624.95V392.656H630.996V386.62Z" fill="white"/>
<path opacity="0.54" d="M639.113 386.62H633.068V392.656H639.113V386.62Z" fill="white"/>
<path opacity="0.99" d="M558.453 394.552H552.408V400.588H558.453V394.552Z" fill="white"/>
<path opacity="0.28" d="M566.398 394.552H560.353V400.588H566.398V394.552Z" fill="white"/>
<path opacity="0.78" d="M574.516 394.552H568.471V400.588H574.516V394.552Z" fill="white"/>
<path opacity="0.65" d="M582.634 394.552H576.589V400.588H582.634V394.552Z" fill="white"/>
<path opacity="0.32" d="M590.752 394.552H584.706V400.588H590.752V394.552Z" fill="white"/>
<path opacity="0.55" d="M598.697 394.552H592.652V400.588H598.697V394.552Z" fill="white"/>
<path opacity="0.4" d="M606.815 394.552H600.77V400.588H606.815V394.552Z" fill="white"/>
<path opacity="0.22" d="M614.933 394.552H608.887V400.588H614.933V394.552Z" fill="white"/>
<path opacity="0.87" d="M622.878 394.552H616.833V400.588H622.878V394.552Z" fill="white"/>
<path opacity="0.02" d="M630.996 394.552H624.95V400.588H630.996V394.552Z" fill="white"/>
<path opacity="0.39" d="M639.113 394.552H633.068V400.588H639.113V394.552Z" fill="white"/>
<path opacity="0.89" d="M558.453 402.485H552.408V408.52H558.453V402.485Z" fill="white"/>
<path opacity="0.97" d="M566.398 402.485H560.353V408.52H566.398V402.485Z" fill="white"/>
<path opacity="0.79" d="M574.516 402.485H568.471V408.52H574.516V402.485Z" fill="white"/>
<path opacity="0.41" d="M582.634 402.485H576.589V408.52H582.634V402.485Z" fill="white"/>
<path opacity="0.13" d="M590.752 402.485H584.706V408.52H590.752V402.485Z" fill="white"/>
<path opacity="0.9" d="M598.697 402.485H592.652V408.52H598.697V402.485Z" fill="white"/>
<path opacity="0.98" d="M606.815 402.485H600.77V408.52H606.815V402.485Z" fill="white"/>
<path opacity="0.67" d="M614.933 402.485H608.887V408.52H614.933V402.485Z" fill="white"/>
<path opacity="0.65" d="M622.878 402.485H616.833V408.52H622.878V402.485Z" fill="white"/>
<path opacity="0.89" d="M630.996 402.485H624.95V408.52H630.996V402.485Z" fill="white"/>
<path opacity="0.98" d="M639.113 402.485H633.068V408.52H639.113V402.485Z" fill="white"/>
<path opacity="0.29" d="M558.453 410.417H552.408V416.453H558.453V410.417Z" fill="white"/>
<path opacity="0.74" d="M566.398 410.417H560.353V416.453H566.398V410.417Z" fill="white"/>
<path opacity="0.64" d="M574.516 410.417H568.471V416.453H574.516V410.417Z" fill="white"/>
<path opacity="0.65" d="M582.634 410.417H576.589V416.453H582.634V410.417Z" fill="white"/>
<path opacity="0.07" d="M590.752 410.417H584.706V416.453H590.752V410.417Z" fill="white"/>
<path opacity="0.16" d="M598.697 410.417H592.652V416.453H598.697V410.417Z" fill="white"/>
<path opacity="0.84" d="M606.815 410.417H600.77V416.453H606.815V410.417Z" fill="white"/>
<path opacity="0.88" d="M614.933 410.417H608.887V416.453H614.933V410.417Z" fill="white"/>
<path opacity="0.57" d="M622.878 410.417H616.833V416.453H622.878V410.417Z" fill="white"/>
<path opacity="0.31" d="M630.996 410.417H624.95V416.453H630.996V410.417Z" fill="white"/>
<path opacity="0.03" d="M639.113 410.417H633.068V416.453H639.113V410.417Z" fill="white"/>
<path opacity="0.3" d="M558.453 418.35H552.408V424.385H558.453V418.35Z" fill="white"/>
<path opacity="0.59" d="M566.398 418.35H560.353V424.385H566.398V418.35Z" fill="white"/>
<path opacity="0.93" d="M574.516 418.35H568.471V424.385H574.516V418.35Z" fill="white"/>
<path opacity="0.06" d="M582.634 418.35H576.589V424.385H582.634V418.35Z" fill="white"/>
<path opacity="0.74" d="M590.752 418.35H584.706V424.385H590.752V418.35Z" fill="white"/>
<path opacity="0.22" d="M598.697 418.35H592.652V424.385H598.697V418.35Z" fill="white"/>
<path opacity="0.51" d="M606.815 418.35H600.77V424.385H606.815V418.35Z" fill="white"/>
<path opacity="0.7" d="M614.933 418.35H608.887V424.385H614.933V418.35Z" fill="white"/>
<path opacity="0.47" d="M622.878 418.35H616.833V424.385H622.878V418.35Z" fill="white"/>
<path opacity="0.08" d="M630.996 418.35H624.95V424.385H630.996V418.35Z" fill="white"/>
<path opacity="0.93" d="M639.113 418.35H633.068V424.385H639.113V418.35Z" fill="white"/>
<path opacity="0.81" d="M558.453 426.282H552.408V432.318H558.453V426.282Z" fill="white"/>
<path opacity="0.9" d="M566.398 426.282H560.353V432.318H566.398V426.282Z" fill="white"/>
<path opacity="0.55" d="M574.516 426.282H568.471V432.318H574.516V426.282Z" fill="white"/>
<path opacity="0.14" d="M582.634 426.282H576.589V432.318H582.634V426.282Z" fill="white"/>
<path opacity="0.66" d="M590.752 426.282H584.706V432.318H590.752V426.282Z" fill="white"/>
<path opacity="0.92" d="M598.697 426.282H592.652V432.318H598.697V426.282Z" fill="white"/>
<path opacity="0.4" d="M606.815 426.282H600.77V432.318H606.815V426.282Z" fill="white"/>
<path opacity="0.6" d="M614.933 426.282H608.887V432.318H614.933V426.282Z" fill="white"/>
<path opacity="0.99" d="M622.878 426.282H616.833V432.318H622.878V426.282Z" fill="white"/>
<path opacity="0.68" d="M630.996 426.282H624.95V432.318H630.996V426.282Z" fill="white"/>
<path opacity="0.01" d="M639.113 426.282H633.068V432.318H639.113V426.282Z" fill="white"/>
<path opacity="0.82" d="M558.453 434.214H552.408V440.25H558.453V434.214Z" fill="white"/>
<path opacity="0.92" d="M566.398 434.214H560.353V440.25H566.398V434.214Z" fill="white"/>
<path opacity="0.29" d="M574.516 434.214H568.471V440.25H574.516V434.214Z" fill="white"/>
<path opacity="0.73" d="M582.634 434.214H576.589V440.25H582.634V434.214Z" fill="white"/>
<path opacity="0.42" d="M590.752 434.214H584.706V440.25H590.752V434.214Z" fill="white"/>
<path opacity="0.06" d="M598.697 434.214H592.652V440.25H598.697V434.214Z" fill="white"/>
<path opacity="0.7" d="M606.815 434.214H600.77V440.25H606.815V434.214Z" fill="white"/>
<path opacity="0.97" d="M614.933 434.214H608.887V440.25H614.933V434.214Z" fill="white"/>
<path opacity="0.51" d="M622.878 434.214H616.833V440.25H622.878V434.214Z" fill="white"/>
<path opacity="0.69" d="M630.996 434.214H624.95V440.25H630.996V434.214Z" fill="white"/>
<path opacity="0.49" d="M639.113 434.214H633.068V440.25H639.113V434.214Z" fill="white"/>
<path opacity="0.45" d="M558.453 442.147H552.408V448.182H558.453V442.147Z" fill="white"/>
<path opacity="0.46" d="M566.398 442.147H560.353V448.182H566.398V442.147Z" fill="white"/>
<path opacity="0.04" d="M574.516 442.147H568.471V448.182H574.516V442.147Z" fill="white"/>
<path opacity="0.56" d="M582.634 442.147H576.589V448.182H582.634V442.147Z" fill="white"/>
<path opacity="0.4" d="M590.752 442.147H584.706V448.182H590.752V442.147Z" fill="white"/>
<path opacity="0.59" d="M598.697 442.147H592.652V448.182H598.697V442.147Z" fill="white"/>
<path opacity="0.82" d="M606.815 442.147H600.77V448.182H606.815V442.147Z" fill="white"/>
<path opacity="0.99" d="M614.933 442.147H608.887V448.182H614.933V442.147Z" fill="white"/>
<path opacity="0.1" d="M622.878 442.147H616.833V448.182H622.878V442.147Z" fill="white"/>
<path opacity="0.87" d="M630.996 442.147H624.95V448.182H630.996V442.147Z" fill="white"/>
<path d="M639.113 442.147H633.068V448.182H639.113V442.147Z" fill="white"/>
<path d="M456.375 268.324H399.378V446.631H456.375V268.324Z" fill="#333333"/>
<path d="M425.286 259.356H399.378V269.358H425.286V259.356Z" fill="#333333"/>
<path d="M414.404 253.493H399.378V259.356H414.404V253.493Z" fill="#333333"/>
<path opacity="0.25" d="M432.367 280.912H423.04V290.224H432.367V280.912Z" fill="white"/>
<path opacity="0.15" d="M432.367 303.847H423.04V313.159H432.367V303.847Z" fill="white"/>
<path opacity="0.19" d="M432.367 349.544H423.04V358.857H432.367V349.544Z" fill="white"/>
<path opacity="0.17" d="M432.367 372.307H423.04V381.619H432.367V372.307Z" fill="white"/>
<path opacity="0.22" d="M432.367 395.07H423.04V404.382H432.367V395.07Z" fill="white"/>
<path d="M432.367 418.005H423.04V427.317H432.367V418.005Z" fill="white"/>
<path d="M414.059 367.651H360.688V383.344H414.059V367.651Z" fill="#333333"/>
<path d="M440.658 367.651H414.059V383.344H440.658V367.651Z" fill="#4D4D4D"/>
<path d="M360.688 367.651L377.27 359.719L414.059 367.651H360.688Z" fill="#333333"/>
<path d="M377.27 359.719L414.059 367.651H440.658L377.27 359.719Z" fill="#4D4D4D"/>
<path d="M426.495 378.688H348.425V450.08H426.495V378.688Z" fill="#333333"/>
<path d="M452.403 378.688H426.495V450.08H452.403V378.688Z" fill="#4D4D4D"/>
<path opacity="0.81" d="M446.358 383.688H432.367V388.862H446.358V383.688Z" fill="white"/>
<path opacity="0.76" d="M446.358 393.173H432.367V398.346H446.358V393.173Z" fill="white"/>
<path opacity="0.32" d="M446.358 402.657H432.367V407.831H446.358V402.657Z" fill="white"/>
<path opacity="0.49" d="M446.358 412.314H432.367V417.488H446.358V412.314Z" fill="white"/>
<path opacity="0.99" d="M446.358 431.283H432.367V436.456H446.358V431.283Z" fill="white"/>
<path opacity="0.1" d="M374.852 383.688H360.861V388.862H374.852V383.688Z" fill="white"/>
<path opacity="0.04" d="M394.369 383.688H380.378V388.862H394.369V383.688Z" fill="white"/>
<path opacity="0.07" d="M414.059 383.688H400.069V388.862H414.059V383.688Z" fill="white"/>
<path opacity="0.06" d="M374.852 393.173H360.861V398.346H374.852V393.173Z" fill="white"/>
<path opacity="0.44" d="M394.369 393.173H380.378V398.346H394.369V393.173Z" fill="white"/>
<path opacity="0.24" d="M414.059 393.173H400.069V398.346H414.059V393.173Z" fill="white"/>
<path opacity="0.55" d="M374.852 402.657H360.861V407.831H374.852V402.657Z" fill="white"/>
<path opacity="0.02" d="M394.369 402.657H380.378V407.831H394.369V402.657Z" fill="white"/>
<path opacity="0.14" d="M414.059 402.657H400.069V407.831H414.059V402.657Z" fill="white"/>
<path opacity="0.43" d="M374.852 412.314H360.861V417.488H374.852V412.314Z" fill="white"/>
<path opacity="0.41" d="M394.369 412.314H380.378V417.488H394.369V412.314Z" fill="white"/>
<path opacity="0.46" d="M414.059 412.314H400.069V417.488H414.059V412.314Z" fill="white"/>
<path opacity="0.45" d="M374.852 421.799H360.861V426.972H374.852V421.799Z" fill="white"/>
<path opacity="0.33" d="M394.369 421.799H380.378V426.972H394.369V421.799Z" fill="white"/>
<path opacity="0.05" d="M414.059 421.799H400.069V426.972H414.059V421.799Z" fill="white"/>
<path opacity="0.27" d="M374.852 431.283H360.861V436.457H374.852V431.283Z" fill="white"/>
<path opacity="0.15" d="M394.369 431.283H380.378V436.457H394.369V431.283Z" fill="white"/>
<path opacity="0.7" d="M414.059 431.283H400.069V436.457H414.059V431.283Z" fill="white"/>
<path d="M46.6829 307.296H-1.67883V456.115H46.6829V307.296Z" fill="#333333"/>
<path d="M101.781 307.296H46.8556V456.115H101.781V307.296Z" fill="#4D4D4D"/>
<path d="M46.6829 319.885H-1.67883V322.471H46.6829V319.885Z" fill="#4D4D4D"/>
<path d="M101.781 319.885H46.8556V322.471H101.781V319.885Z" fill="#333333"/>
<path opacity="0.47" d="M7.4754 325.403H2.29382V330.576H7.4754V325.403Z" fill="white"/>
<path opacity="0.26" d="M14.557 325.403H9.37537V330.576H14.557V325.403Z" fill="white"/>
<path opacity="0.32" d="M21.6385 325.403H16.4568V330.576H21.6385V325.403Z" fill="white"/>
<path opacity="0.25" d="M28.72 325.403H23.5383V330.576H28.72V325.403Z" fill="white"/>
<path opacity="0.12" d="M42.8831 325.403H37.7014V330.576H42.8831V325.403Z" fill="white"/>
<path opacity="0.32" d="M7.4754 332.473H2.29382V337.646H7.4754V332.473Z" fill="white"/>
<path opacity="0.22" d="M21.6385 332.473H16.4568V337.646H21.6385V332.473Z" fill="white"/>
<path opacity="0.47" d="M28.72 332.473H23.5383V337.646H28.72V332.473Z" fill="white"/>
<path opacity="0.22" d="M35.8015 332.473H30.6199V337.646H35.8015V332.473Z" fill="white"/>
<path opacity="0.32" d="M42.8831 332.473H37.7014V337.646H42.8831V332.473Z" fill="white"/>
<path opacity="0.37" d="M7.4754 339.543H2.29382V344.717H7.4754V339.543Z" fill="white"/>
<path opacity="0.34" d="M14.557 339.543H9.37537V344.717H14.557V339.543Z" fill="white"/>
<path opacity="0.18" d="M21.6385 339.543H16.4568V344.717H21.6385V339.543Z" fill="white"/>
<path opacity="0.28" d="M28.72 339.543H23.5383V344.717H28.72V339.543Z" fill="white"/>
<path opacity="0.2" d="M42.8831 339.543H37.7014V344.717H42.8831V339.543Z" fill="white"/>
<path opacity="0.18" d="M7.4754 346.613H2.29382V351.787H7.4754V346.613Z" fill="white"/>
<path opacity="0.33" d="M21.6385 346.613H16.4568V351.787H21.6385V346.613Z" fill="white"/>
<path opacity="0.05" d="M28.72 346.613H23.5383V351.787H28.72V346.613Z" fill="white"/>
<path opacity="0.08" d="M35.8015 346.613H30.6199V351.787H35.8015V346.613Z" fill="white"/>
<path opacity="0.08" d="M28.72 353.683H23.5383V358.857H28.72V353.683Z" fill="white"/>
<path opacity="0.02" d="M35.8015 353.683H30.6199V358.857H35.8015V353.683Z" fill="white"/>
<path opacity="0.03" d="M7.4754 360.754H2.29382V365.927H7.4754V360.754Z" fill="white"/>
<path opacity="0.46" d="M14.557 360.754H9.37537V365.927H14.557V360.754Z" fill="white"/>
<path opacity="0.05" d="M21.6385 360.754H16.4568V365.927H21.6385V360.754Z" fill="white"/>
<path opacity="0.2" d="M28.72 360.754H23.5383V365.927H28.72V360.754Z" fill="white"/>
<path opacity="0.23" d="M35.8015 360.754H30.6199V365.927H35.8015V360.754Z" fill="white"/>
<path opacity="0.17" d="M7.4754 367.824H2.29382V372.997H7.4754V367.824Z" fill="white"/>
<path opacity="0.08" d="M14.557 367.824H9.37537V372.997H14.557V367.824Z" fill="white"/>
<path opacity="0.14" d="M21.6385 367.824H16.4568V372.997H21.6385V367.824Z" fill="white"/>
<path opacity="0.24" d="M35.8015 367.824H30.6199V372.997H35.8015V367.824Z" fill="white"/>
<path opacity="0.28" d="M7.4754 374.894H2.29382V380.067H7.4754V374.894Z" fill="white"/>
<path opacity="0.3" d="M14.557 374.894H9.37537V380.067H14.557V374.894Z" fill="white"/>
<path opacity="0.23" d="M21.6385 374.894H16.4568V380.067H21.6385V374.894Z" fill="white"/>
<path opacity="0.02" d="M28.72 374.894H23.5383V380.067H28.72V374.894Z" fill="white"/>
<path opacity="0.04" d="M35.8015 374.894H30.6199V380.067H35.8015V374.894Z" fill="white"/>
<path opacity="0.3" d="M42.8831 374.894H37.7014V380.067H42.8831V374.894Z" fill="white"/>
<path opacity="0.08" d="M14.557 381.792H9.37537V386.965H14.557V381.792Z" fill="white"/>
<path opacity="0.4" d="M42.8831 381.792H37.7014V386.965H42.8831V381.792Z" fill="white"/>
<path opacity="0.31" d="M7.4754 388.862H2.29382V394.036H7.4754V388.862Z" fill="white"/>
<path opacity="0.31" d="M14.557 388.862H9.37537V394.036H14.557V388.862Z" fill="white"/>
<path opacity="0.12" d="M21.6385 388.862H16.4568V394.036H21.6385V388.862Z" fill="white"/>
<path opacity="0.19" d="M35.8015 388.862H30.6199V394.036H35.8015V388.862Z" fill="white"/>
<path opacity="0.43" d="M42.8831 388.862H37.7014V394.036H42.8831V388.862Z" fill="white"/>
<path opacity="0.12" d="M7.4754 395.932H2.29382V401.106H7.4754V395.932Z" fill="white"/>
<path opacity="0.42" d="M28.72 395.932H23.5383V401.106H28.72V395.932Z" fill="white"/>
<path opacity="0.31" d="M42.8831 395.932H37.7014V401.106H42.8831V395.932Z" fill="white"/>
<path opacity="0.23" d="M7.4754 403.003H2.29382V408.176H7.4754V403.003Z" fill="white"/>
<path opacity="0.31" d="M28.72 403.003H23.5383V408.176H28.72V403.003Z" fill="white"/>
<path opacity="0.33" d="M42.8831 403.003H37.7014V408.176H42.8831V403.003Z" fill="white"/>
<path opacity="0.49" d="M7.4754 410.073H2.29382V415.246H7.4754V410.073Z" fill="white"/>
<path opacity="0.06" d="M14.557 410.073H9.37537V415.246H14.557V410.073Z" fill="white"/>
<path opacity="0.17" d="M28.72 410.073H23.5383V415.246H28.72V410.073Z" fill="white"/>
<path opacity="0.01" d="M35.8015 410.073H30.6199V415.246H35.8015V410.073Z" fill="white"/>
<path opacity="0.48" d="M42.8831 410.073H37.7014V415.246H42.8831V410.073Z" fill="white"/>
<path opacity="0.05" d="M7.4754 417.143H2.29382V422.316H7.4754V417.143Z" fill="white"/>
<path opacity="0.23" d="M14.557 417.143H9.37537V422.316H14.557V417.143Z" fill="white"/>
<path opacity="0.28" d="M21.6385 417.143H16.4568V422.316H21.6385V417.143Z" fill="white"/>
<path opacity="0.02" d="M28.72 417.143H23.5383V422.316H28.72V417.143Z" fill="white"/>
<path opacity="0.17" d="M35.8015 417.143H30.6199V422.316H35.8015V417.143Z" fill="white"/>
<path opacity="0.42" d="M42.8831 417.143H37.7014V422.316H42.8831V417.143Z" fill="white"/>
<path opacity="0.13" d="M7.4754 424.213H2.29382V429.387H7.4754V424.213Z" fill="white"/>
<path opacity="0.11" d="M21.6385 424.213H16.4568V429.387H21.6385V424.213Z" fill="white"/>
<path opacity="0.02" d="M28.72 424.213H23.5383V429.387H28.72V424.213Z" fill="white"/>
<path opacity="0.3" d="M42.8831 424.213H37.7014V429.387H42.8831V424.213Z" fill="white"/>
<path opacity="0.23" d="M7.4754 431.284H2.29382V436.457H7.4754V431.284Z" fill="white"/>
<path opacity="0.01" d="M14.557 431.284H9.37537V436.457H14.557V431.284Z" fill="white"/>
<path opacity="0.19" d="M21.6385 431.284H16.4568V436.457H21.6385V431.284Z" fill="white"/>
<path opacity="0.05" d="M28.72 431.284H23.5383V436.457H28.72V431.284Z" fill="white"/>
<path opacity="0.2" d="M42.8831 431.284H37.7014V436.457H42.8831V431.284Z" fill="white"/>
<path opacity="0.3" d="M7.4754 438.354H2.29382V443.527H7.4754V438.354Z" fill="white"/>
<path opacity="0.05" d="M14.557 438.354H9.37537V443.527H14.557V438.354Z" fill="white"/>
<path opacity="0.27" d="M28.72 438.354H23.5383V443.527H28.72V438.354Z" fill="white"/>
<path opacity="0.13" d="M35.8015 438.354H30.6199V443.527H35.8015V438.354Z" fill="white"/>
<path opacity="0.25" d="M7.4754 445.424H2.29382V450.597H7.4754V445.424Z" fill="white"/>
<path opacity="0.22" d="M14.557 445.424H9.37537V450.597H14.557V445.424Z" fill="white"/>
<path opacity="0.46" d="M21.6385 445.424H16.4568V450.597H21.6385V445.424Z" fill="white"/>
<path opacity="0.12" d="M28.72 445.424H23.5383V450.597H28.72V445.424Z" fill="white"/>
<path opacity="0.04" d="M35.8015 445.424H30.6199V450.597H35.8015V445.424Z" fill="white"/>
<path opacity="0.3" d="M42.8831 445.424H37.7014V450.597H42.8831V445.424Z" fill="white"/>
<path opacity="0.08" d="M35.8015 325.403H30.6199V330.576H35.8015V325.403Z" fill="white"/>
<path opacity="0.1" d="M14.557 332.473H9.37537V337.646H14.557V332.473Z" fill="white"/>
<path opacity="0.08" d="M35.8015 339.543H30.6199V344.717H35.8015V339.543Z" fill="white"/>
<path opacity="0.1" d="M14.557 346.613H9.37537V351.787H14.557V346.613Z" fill="white"/>
<path opacity="0.01" d="M42.8831 346.613H37.7014V351.787H42.8831V346.613Z" fill="white"/>
<path opacity="0.17" d="M7.4754 353.683H2.29382V358.857H7.4754V353.683Z" fill="white"/>
<path opacity="0.01" d="M14.557 353.683H9.37537V358.857H14.557V353.683Z" fill="white"/>
<path opacity="0.15" d="M21.6385 353.683H16.4568V358.857H21.6385V353.683Z" fill="white"/>
<path opacity="0.12" d="M42.8831 353.683H37.7014V358.857H42.8831V353.683Z" fill="white"/>
<path opacity="0.13" d="M28.72 367.824H23.5383V372.997H28.72V367.824Z" fill="white"/>
<path opacity="0.07" d="M42.8831 367.824H37.7014V372.997H42.8831V367.824Z" fill="white"/>
<path opacity="0.13" d="M7.4754 381.792H2.29382V386.965H7.4754V381.792Z" fill="white"/>
<path opacity="0.02" d="M21.6385 381.792H16.4568V386.965H21.6385V381.792Z" fill="white"/>
<path opacity="0.02" d="M28.72 381.792H23.5383V386.965H28.72V381.792Z" fill="white"/>
<path opacity="0.14" d="M35.8015 381.792H30.6199V386.965H35.8015V381.792Z" fill="white"/>
<path opacity="0.09" d="M21.6385 395.932H16.4568V401.106H21.6385V395.932Z" fill="white"/>
<path opacity="0.02" d="M35.8015 395.932H30.6199V401.106H35.8015V395.932Z" fill="white"/>
<path opacity="0.19" d="M21.6385 403.003H16.4568V408.176H21.6385V403.003Z" fill="white"/>
<path opacity="0.06" d="M35.8015 403.003H30.6199V408.176H35.8015V403.003Z" fill="white"/>
<path opacity="0.16" d="M21.6385 410.073H16.4568V415.246H21.6385V410.073Z" fill="white"/>
<path opacity="0.19" d="M14.557 424.213H9.37537V429.387H14.557V424.213Z" fill="white"/>
<path opacity="0.04" d="M35.8015 424.213H30.6199V429.387H35.8015V424.213Z" fill="white"/>
<path opacity="0.04" d="M35.8015 431.284H30.6199V436.457H35.8015V431.284Z" fill="white"/>
<path opacity="0.18" d="M42.8831 438.354H37.7014V443.527H42.8831V438.354Z" fill="white"/>
<g opacity="0.7">
<path opacity="0.7" d="M57.2188 322.471H51.8645V449.562H57.2188V322.471Z" fill="#E6E6E6"/>
<path opacity="0.7" d="M66.373 322.471H61.0187V449.562H66.373V322.471Z" fill="#E6E6E6"/>
<path opacity="0.7" d="M75.6999 322.471H70.3456V449.562H75.6999V322.471Z" fill="#E6E6E6"/>
<path opacity="0.7" d="M85.0268 322.471H79.6725V449.562H85.0268V322.471Z" fill="#E6E6E6"/>
<path opacity="0.7" d="M94.3537 322.471H88.9994V449.562H94.3537V322.471Z" fill="#E6E6E6"/>
</g>
<path d="M10.9298 370.066H-35.7047V456.806H10.9298V370.066Z" fill="#4D4D4D"/>
<path opacity="0.74" d="M2.63919 375.411H-5.47864V383.516H2.63919V375.411Z" fill="white"/>
<path opacity="0.54" d="M2.63919 385.241H-5.47864V393.346H2.63919V385.241Z" fill="white"/>
<path opacity="0.86" d="M2.63919 395.07H-5.47864V403.175H2.63919V395.07Z" fill="white"/>
<path opacity="0.39" d="M2.63919 404.899H-5.47864V413.004H2.63919V404.899Z" fill="white"/>
<path opacity="0.62" d="M2.63919 414.901H-5.47864V423.006H2.63919V414.901Z" fill="white"/>
<path opacity="0.42" d="M2.63919 425.075H-5.47864V433.18H2.63919V425.075Z" fill="white"/>
<path opacity="0.21" d="M2.63919 434.905H-5.47864V443.01H2.63919V434.905Z" fill="white"/>
<path d="M129.416 449.563H21.9839L129.416 356.098V449.563Z" fill="#333333"/>
<path d="M120.262 433.008H83.2997V453.701H120.262V433.008Z" fill="#4D4D4D"/>
<path d="M117.498 428.18H86.0632V437.837H117.498V428.18Z" fill="#4D4D4D"/>
<path d="M113.871 431.111H89.5176L97.9809 416.971H105.408L113.871 431.111Z" fill="#4D4D4D"/>
<path d="M110.417 437.147H93.1448V449.735H110.417V437.147Z" fill="white"/>
<path d="M112.489 442.148H91.072V444.734H112.489V442.148Z" fill="#4D4D4D"/>
<path d="M285.21 466.979C285.728 480.43 275.365 491.984 261.72 492.501C248.248 493.019 236.675 482.499 236.157 469.049C235.639 455.598 246.002 444.044 259.647 443.527C273.119 443.01 284.519 453.529 285.21 466.979Z" fill="#333333"/>
<path d="M281.064 460.254C281.41 468.014 275.365 474.567 267.592 474.912C259.82 475.257 253.257 469.221 252.911 461.461C252.566 453.701 258.611 447.148 266.383 446.803C274.156 446.458 280.719 452.494 281.064 460.254Z" fill="#4D4D4D"/>
<path d="M38.5651 441.63C38.5651 444.907 35.8015 447.666 32.5198 447.666C29.2381 447.666 26.4746 444.907 26.4746 441.63C26.4746 438.354 29.2381 435.595 32.5198 435.595C35.8015 435.595 38.5651 438.181 38.5651 441.63Z" fill="#333333"/>
<path d="M40.6377 447.666C40.6377 452.149 37.0106 455.771 32.5198 455.771C28.0291 455.771 24.402 452.149 24.402 447.666C24.402 443.182 28.0291 439.561 32.5198 439.561C37.0106 439.561 40.6377 443.182 40.6377 447.666Z" fill="#333333"/>
<path d="M36.4924 436.457C36.4924 438.699 34.7652 440.596 32.5199 440.596C30.2745 440.596 28.5473 438.699 28.5473 436.457C28.5473 434.215 30.2745 432.318 32.5199 432.318C34.7652 432.318 36.4924 434.215 36.4924 436.457Z" fill="#333333"/>
<path d="M37.7014 441.63C37.7014 443.527 36.147 445.079 34.2471 445.079C32.3471 445.079 30.7927 443.527 30.7927 441.63C30.7927 439.733 32.3471 438.181 34.2471 438.181C36.147 438.181 37.7014 439.733 37.7014 441.63Z" fill="#4D4D4D"/>
<path d="M35.9742 436.974C35.9742 438.354 34.7652 439.561 33.3835 439.561C32.0017 439.561 30.7927 438.354 30.7927 436.974C30.7927 435.595 32.0017 434.388 33.3835 434.388C34.7652 434.215 35.9742 435.422 35.9742 436.974Z" fill="#4D4D4D"/>
<path d="M153.77 454.219C153.77 458.53 150.142 462.151 145.824 462.151C141.506 462.151 137.879 458.53 137.879 454.219C137.879 449.907 141.334 446.286 145.824 446.286C150.142 446.286 153.77 449.907 153.77 454.219Z" fill="#333333"/>
<path d="M151.006 447.493C151.006 450.425 148.761 452.839 145.824 452.839C142.888 452.839 140.643 450.425 140.643 447.493C140.643 444.562 142.888 442.147 145.824 442.147C148.588 442.147 151.006 444.562 151.006 447.493Z" fill="#333333"/>
<path d="M150.315 448.01C150.315 449.907 148.761 451.459 146.861 451.459C144.961 451.459 143.406 449.907 143.406 448.01C143.406 446.114 144.961 444.562 146.861 444.562C148.761 444.562 150.315 446.114 150.315 448.01Z" fill="#4D4D4D"/>
<path d="M143.061 460.082C142.197 468.359 134.77 474.222 126.653 473.36C118.362 472.498 112.489 465.083 113.353 456.978C114.217 448.701 121.644 442.837 129.761 443.7C137.879 444.562 143.925 451.805 143.061 460.082Z" fill="#333333"/>
<path d="M139.261 446.804C138.743 452.322 133.907 456.461 128.38 455.943C123.025 455.426 119.053 450.425 119.571 444.907C120.089 439.389 124.925 435.25 130.452 435.767C135.979 436.285 139.779 441.286 139.261 446.804Z" fill="#333333"/>
<path d="M137.879 447.838C137.534 451.46 134.252 454.046 130.798 453.701C127.171 453.357 124.58 450.08 124.925 446.631C125.271 443.01 128.552 440.423 132.007 440.768C135.634 441.113 138.225 444.389 137.879 447.838Z" fill="#4D4D4D"/>
<path d="M221.303 452.839C221.303 460.427 215.258 466.462 207.658 466.462C200.058 466.462 194.013 460.427 194.013 452.839C194.013 445.252 200.058 439.216 207.658 439.216C215.085 439.216 221.303 445.252 221.303 452.839Z" fill="#333333"/>
<path d="M216.467 441.113C216.467 446.286 212.494 450.425 207.486 450.425C202.477 450.425 198.504 446.286 198.504 441.113C198.504 435.939 202.477 431.801 207.486 431.801C212.494 431.973 216.467 436.112 216.467 441.113Z" fill="#333333"/>
<path d="M219.231 452.839C219.231 457.15 215.776 460.772 211.285 460.772C206.967 460.772 203.34 457.323 203.34 452.839C203.34 448.528 206.795 444.907 211.285 444.907C215.603 445.079 219.231 448.528 219.231 452.839Z" fill="#4D4D4D"/>
<path d="M215.258 442.32C215.258 445.596 212.667 448.355 209.213 448.355C205.931 448.355 203.168 445.769 203.168 442.32C203.168 439.043 205.758 436.457 209.213 436.457C212.667 436.284 215.258 439.043 215.258 442.32Z" fill="#4D4D4D"/>
<path d="M191.077 464.22C191.077 473.877 183.132 481.81 173.46 481.81C163.787 481.81 155.842 473.877 155.842 464.22C155.842 454.563 163.787 446.631 173.46 446.631C183.132 446.631 191.077 454.391 191.077 464.22Z" fill="#333333"/>
<path d="M185.032 449.045C185.032 455.598 179.85 460.944 173.46 460.944C167.069 460.944 161.887 455.598 161.887 449.045C161.887 442.492 167.069 437.146 173.46 437.146C179.85 437.146 185.032 442.492 185.032 449.045Z" fill="#333333"/>
<path d="M183.477 450.597C183.477 454.908 180.023 458.185 175.705 458.185C171.387 458.185 167.932 454.736 167.932 450.597C167.932 446.286 171.387 442.837 175.705 442.837C180.023 442.837 183.477 446.286 183.477 450.597Z" fill="#4D4D4D"/>
<path d="M233.739 451.115C233.739 453.184 232.185 454.736 230.285 454.736C228.385 454.736 226.83 453.184 226.83 451.115C226.83 449.045 228.385 447.493 230.285 447.493C232.185 447.493 233.739 449.045 233.739 451.115Z" fill="#333333"/>
<path d="M308.009 446.804C308.009 453.529 302.654 458.875 295.918 458.875C289.182 458.875 283.828 453.529 283.828 446.804C283.828 440.078 289.182 434.733 295.918 434.733C302.654 434.733 308.009 440.078 308.009 446.804Z" fill="#333333"/>
<path d="M312.154 458.875C312.154 467.842 304.9 475.085 295.918 475.085C286.937 475.085 279.683 467.842 279.683 458.875C279.683 449.908 286.937 442.665 295.918 442.665C304.9 442.665 312.154 449.908 312.154 458.875Z" fill="#333333"/>
<path d="M303.864 436.457C303.864 440.941 300.236 444.734 295.918 444.734C291.6 444.734 287.973 441.113 287.973 436.457C287.973 431.973 291.6 428.18 295.918 428.18C300.236 428.18 303.864 431.973 303.864 436.457Z" fill="#333333"/>
<path d="M306.109 446.804C306.109 450.598 303 453.702 299.2 453.702C295.4 453.702 292.291 450.598 292.291 446.804C292.291 443.01 295.4 439.906 299.2 439.906C303 439.906 306.109 443.01 306.109 446.804Z" fill="#4D4D4D"/>
<path d="M302.827 437.492C302.827 440.423 300.409 442.837 297.473 442.837C294.537 442.837 292.119 440.423 292.119 437.492C292.119 434.56 294.537 432.146 297.473 432.146C300.409 432.146 302.827 434.56 302.827 437.492Z" fill="#4D4D4D"/>
<path d="M353.089 461.979C353.089 470.946 345.835 478.188 336.853 478.188C327.872 478.188 320.617 470.946 320.617 461.979C320.617 453.012 327.872 445.769 336.853 445.769C345.835 445.941 353.089 453.184 353.089 461.979Z" fill="#333333"/>
<path d="M347.389 448.183C347.389 454.219 342.553 459.22 336.853 459.22C330.98 459.22 326.144 454.391 326.144 448.183C326.144 442.148 330.98 437.319 336.853 437.319C342.725 437.319 347.389 442.148 347.389 448.183Z" fill="#333333"/>
<path d="M346.007 449.563C346.007 453.529 342.898 456.633 338.926 456.633C334.953 456.633 331.844 453.529 331.844 449.563C331.844 445.597 334.953 442.493 338.926 442.493C342.898 442.493 346.007 445.597 346.007 449.563Z" fill="#4D4D4D"/>
<path d="M617.351 468.532C617.351 483.362 605.433 495.261 590.579 495.261C575.725 495.261 563.807 483.362 563.807 468.532C563.807 453.701 575.725 441.803 590.579 441.803C605.433 441.803 617.351 453.874 617.351 468.532Z" fill="#333333"/>
<path d="M613.378 461.117C613.378 469.566 606.469 476.464 598.006 476.464C589.543 476.464 582.634 469.566 582.634 461.117C582.634 452.667 589.543 445.769 598.006 445.769C606.469 445.769 613.378 452.667 613.378 461.117Z" fill="#4D4D4D"/>
<path d="M651.722 456.978C651.722 469.394 641.532 479.568 629.096 479.568C616.66 479.568 606.469 469.394 606.469 456.978C606.469 444.562 616.66 434.388 629.096 434.388C641.704 434.388 651.722 444.389 651.722 456.978Z" fill="#333333"/>
<path d="M648.268 450.598C648.268 457.84 642.395 463.531 635.314 463.531C628.059 463.531 622.36 457.668 622.36 450.598C622.36 443.527 628.232 437.664 635.314 437.664C642.395 437.664 648.268 443.527 648.268 450.598Z" fill="#4D4D4D"/>
<path d="M594.034 460.599C594.034 473.015 583.843 483.189 571.407 483.189C558.971 483.189 548.781 473.015 548.781 460.599C548.781 448.183 558.971 438.009 571.407 438.009C584.016 438.009 594.034 448.011 594.034 460.599Z" fill="#333333"/>
<path d="M590.579 454.219C590.579 461.461 584.707 467.152 577.625 467.152C570.544 467.152 564.671 461.289 564.671 454.219C564.671 446.976 570.544 441.285 577.625 441.285C584.707 441.285 590.579 446.976 590.579 454.219Z" fill="#4D4D4D"/>
<path d="M524.255 465.773C524.255 478.189 514.064 488.363 501.628 488.363C489.192 488.363 479.002 478.189 479.002 465.773C479.002 453.357 489.192 443.183 501.628 443.183C514.237 443.183 524.255 453.357 524.255 465.773Z" fill="#333333"/>
<path d="M520.8 459.392C520.8 466.635 514.928 472.326 507.846 472.326C500.592 472.326 494.892 466.463 494.892 459.392C494.892 452.15 500.765 446.459 507.846 446.459C514.928 446.459 520.8 452.322 520.8 459.392Z" fill="#4D4D4D"/>
<path d="M496.965 461.979C496.965 474.395 486.774 484.569 474.338 484.569C461.902 484.569 451.712 474.395 451.712 461.979C451.712 449.563 461.902 439.389 474.338 439.389C486.774 439.389 496.965 449.39 496.965 461.979Z" fill="#333333"/>
<path d="M493.51 455.599C493.51 462.841 487.638 468.532 480.556 468.532C473.302 468.532 467.602 462.669 467.602 455.599C467.602 448.356 473.475 442.665 480.556 442.665C487.638 442.665 493.51 448.356 493.51 455.599Z" fill="#4D4D4D"/>
<path d="M514.582 458.357C514.582 465.6 508.71 471.29 501.628 471.29C494.374 471.29 488.674 465.427 488.674 458.357C488.674 451.114 494.547 445.424 501.628 445.424C508.882 445.424 514.582 451.287 514.582 458.357Z" fill="#4D4D4D"/>
<path d="M418.032 459.392C418.032 467.497 411.468 474.222 403.178 474.222C395.06 474.222 388.324 467.669 388.324 459.392C388.324 451.287 394.887 444.562 403.178 444.562C411.468 444.734 418.032 451.287 418.032 459.392Z" fill="#333333"/>
<path d="M415.786 455.253C415.786 459.909 411.986 463.703 407.323 463.703C402.66 463.703 398.86 459.909 398.86 455.253C398.86 450.597 402.66 446.803 407.323 446.803C411.986 446.803 415.786 450.597 415.786 455.253Z" fill="#4D4D4D"/>
<path d="M29.929 447.666C29.929 454.563 24.402 460.082 17.4932 460.082C10.5844 460.082 5.05731 454.563 5.05731 447.666C5.05731 440.768 10.5844 435.25 17.4932 435.25C24.2293 435.077 29.929 440.768 29.929 447.666Z" fill="#333333"/>
<path d="M34.0743 460.082C34.0743 469.394 26.6474 476.809 17.3205 476.809C7.9936 476.809 0.56665 469.394 0.56665 460.082C0.56665 450.77 7.9936 443.355 17.3205 443.355C26.6474 443.355 34.0743 450.77 34.0743 460.082Z" fill="#333333"/>
<path d="M25.6111 436.974C25.6111 441.63 21.9839 445.424 17.3205 445.424C12.8298 445.424 9.02991 441.63 9.02991 436.974C9.02991 432.318 12.657 428.524 17.3205 428.524C21.9839 428.524 25.6111 432.318 25.6111 436.974Z" fill="#333333"/>
<path d="M28.029 447.665C28.029 451.632 24.7473 454.908 20.7748 454.908C16.8022 454.908 13.5205 451.632 13.5205 447.665C13.5205 443.699 16.8022 440.423 20.7748 440.423C24.7473 440.423 28.029 443.699 28.029 447.665Z" fill="#4D4D4D"/>
<path d="M24.5746 438.009C24.5746 440.941 22.1566 443.527 19.0476 443.527C16.1113 443.527 13.5205 441.113 13.5205 438.009C13.5205 435.077 15.9386 432.491 19.0476 432.491C21.9838 432.491 24.5746 434.905 24.5746 438.009Z" fill="#4D4D4D"/>
<path d="M88.8267 452.495C88.8267 458.013 84.336 462.496 78.8089 462.496C73.2818 462.496 68.7911 458.013 68.7911 452.495C68.7911 446.976 73.2818 442.493 78.8089 442.493C84.336 442.493 88.8267 446.976 88.8267 452.495Z" fill="#333333"/>
<path d="M85.3723 443.872C85.3723 447.666 82.436 450.77 78.8089 450.77C75.1817 450.77 72.2455 447.666 72.2455 443.872C72.2455 440.079 75.1817 436.975 78.8089 436.975C82.436 437.147 85.3723 440.079 85.3723 443.872Z" fill="#333333"/>
<path d="M87.2722 452.495C87.2722 455.771 84.6814 458.358 81.3997 458.358C78.118 458.358 75.5272 455.771 75.5272 452.495C75.5272 449.391 78.118 446.804 81.3997 446.804C84.6814 446.631 87.2722 449.218 87.2722 452.495Z" fill="#4D4D4D"/>
<path d="M84.5087 444.735C84.5087 447.149 82.6088 449.046 80.1907 449.046C77.7726 449.046 75.8727 447.149 75.8727 444.735C75.8727 442.32 77.7726 440.423 80.1907 440.423C82.6088 440.251 84.5087 442.32 84.5087 444.735Z" fill="#4D4D4D"/>
</svg>
